<?xml version="1.0" encoding="UTF-8"?>
<svg width="54px" height="54px" viewBox="0 0 54 54" version="1.1" xmlns="http://www.w3.org/2000/svg" xmlns:xlink="http://www.w3.org/1999/xlink">
    <title>System Logo / 2.0.0 (Monochrome white)</title>
    <g id="System-Logo-/-2.0.0-(Monochrome-white)" stroke="none" stroke-width="1" fill="none" fill-rule="evenodd">
        <g id="System-Logo/2.0.0-(Monochrome)" transform="translate(6.25, 2.6706)" fill="#FFFFFF" fill-rule="nonzero">
            <path d="M27.1858564,39.767044 L30.3465998,42.072184 C27.4248329,43.6743099 24.0702984,44.5853627 20.5029762,44.5853627 C17.0494428,44.5853627 13.795339,43.7315037 10.9402582,42.2233792 L14.1319952,39.8964481 C16.1001964,40.6901279 18.2505644,41.1270294 20.5029762,41.1270294 C22.8749593,41.1270294 25.1337769,40.6425101 27.1858564,39.767044 Z M20.8426819,0.0147737738 C20.9340001,0.0444554405 21.0055926,0.116055786 21.0352643,0.207377231 L35.1565764,43.6689886 C35.2077753,43.8265651 35.1215393,43.9958109 34.9639628,44.0470098 C34.8724663,44.0767383 34.772263,44.060783 34.6945246,44.0041073 L20.75,33.8377437 L6.80001297,44.0043029 C6.66611365,44.1018869 6.47845935,44.0724475 6.38087537,43.9385482 C6.32421763,43.8608056 6.30827795,43.7606081 6.33801429,43.6691217 L20.4646396,0.207346 C20.5158558,0.0497751602 20.6851111,-0.0364423623 20.8426819,0.0147737738 Z M24.9686116,9.61044018 L40.0971516,40.9451693 C40.1157684,40.9837289 40.1077697,41.0298622 40.0772588,41.0599039 C40.037905,41.0986526 39.9745904,41.0981621 39.9358417,41.0588083 L33.1781226,34.1955596 C33.0720679,34.0878487 32.9918115,33.9574965 32.9433874,33.8143032 L24.7838282,9.68595352 C24.7676641,9.63815527 24.7896411,9.58580286 24.8350798,9.56386486 C24.884815,9.53985249 24.9445993,9.56070497 24.9686116,9.61044018 Z M16.6968601,9.56386486 C16.7422988,9.58580286 16.7642758,9.63815527 16.7481117,9.68595352 L8.58855249,33.8143032 C8.54012837,33.9574965 8.459872,34.0878487 8.35381735,34.1955596 L1.59609821,41.0588083 C1.5573495,41.0981621 1.4940349,41.0986526 1.45468109,41.0599039 C1.42417018,41.0298622 1.41617154,40.9837289 1.43478827,40.9451693 L16.5633283,9.61044018 C16.5873406,9.56070497 16.6471249,9.53985249 16.6968601,9.56386486 Z M7.67983882,36.304 L6.71829516,39.2600218 C6.37551141,38.9485129 6.04332347,38.6255508 5.72233587,38.2917398 L7.67983882,36.304 Z M33.7968388,36.25 L35.5399268,38.0203169 C35.2563765,38.3260817 34.9636147,38.6231833 34.6620826,38.9111806 L33.7968388,36.25 Z M18.278683,3.69866677 L17.0814726,7.38125582 C9.30774439,8.96536695 3.45833333,15.8407752 3.45833333,24.0823865 C3.45833333,26.6303859 4.01742949,29.0478013 5.01963419,31.2186453 L3.17305382,35.0438506 C1.16351321,31.8734395 0,28.1137896 0,24.0823865 C0,13.510467 8.00141098,4.80737706 18.278683,3.69866677 Z M41.0059524,24.0823865 C41.0059524,27.9124979 39.955729,31.4973164 38.127546,34.5645784 L36.23692,30.6485328 C37.0812661,28.6276463 37.547619,26.4094777 37.547619,24.0823865 C37.547619,16.0292862 31.9627359,9.28060532 24.45484,7.49821425 L23.2403996,3.76056312 C33.2696443,5.09867834 41.0059524,13.6870766 41.0059524,24.0823865 Z" id="System-Logo-2.0.0-(Monochrome)"></path>
        </g>
    </g>
</svg>