<?xml version="1.0" encoding="UTF-8"?>
<svg width="54px" height="54px" viewBox="0 0 54 54" version="1.1" xmlns="http://www.w3.org/2000/svg" xmlns:xlink="http://www.w3.org/1999/xlink">
    <title>System Logo/2.0.0 (Monochrome)</title>
    <g id="System-Logo/2.0.0-(Monochrome)" stroke="none" stroke-width="1" fill="none" fill-rule="evenodd">
        <path d="M33.4358564,42.4376337 L36.5965998,44.7427736 C33.6748329,46.3448996 30.3202984,47.2559524 26.7529762,47.2559524 C23.2994428,47.2559524 20.045339,46.4020933 17.1902582,44.8939688 L20.3819952,42.5670377 C22.3501964,43.3607176 24.5005644,43.797619 26.7529762,43.797619 C29.1249593,43.797619 31.3837769,43.3130998 33.4358564,42.4376337 Z M27.0926819,2.68536345 C27.1840001,2.71504512 27.2555926,2.78664546 27.2852643,2.87796691 L41.4065764,46.3395783 C41.4577753,46.4971547 41.3715393,46.6664006 41.2139628,46.7175995 C41.1224663,46.747328 41.022263,46.7313727 40.9445246,46.6746969 L27,36.5083333 L13.050013,46.6748926 C12.9161137,46.7724766 12.7284594,46.7430372 12.6308754,46.6091379 C12.5742176,46.5313953 12.5582779,46.4311978 12.5880143,46.3397114 L26.7146396,2.87793568 C26.7658558,2.72036484 26.9351111,2.63414731 27.0926819,2.68536345 Z M31.2186116,12.2810299 L46.3471516,43.615759 C46.3657684,43.6543186 46.3577697,43.7004518 46.3272588,43.7304936 C46.287905,43.7692423 46.2245904,43.7687518 46.1858417,43.729398 L39.4281226,36.8661492 C39.3220679,36.7584384 39.2418115,36.6280862 39.1933874,36.4848929 L31.0338282,12.3565432 C31.0176641,12.3087449 31.0396411,12.2563925 31.0850798,12.2344545 C31.134815,12.2104422 31.1945993,12.2312946 31.2186116,12.2810299 Z M22.9468601,12.2344545 C22.9922988,12.2563925 23.0142758,12.3087449 22.9981117,12.3565432 L14.8385525,36.4848929 C14.7901284,36.6280862 14.709872,36.7584384 14.6038173,36.8661492 L7.84609821,43.729398 C7.8073495,43.7687518 7.7440349,43.7692423 7.70468109,43.7304936 C7.67417018,43.7004518 7.66617154,43.6543186 7.68478827,43.615759 L22.8133283,12.2810299 C22.8373406,12.2312946 22.8971249,12.2104422 22.9468601,12.2344545 Z M13.9298388,38.9745897 L12.9682952,41.9306115 C12.6255114,41.6191026 12.2933235,41.2961404 11.9723359,40.9623295 L13.9298388,38.9745897 Z M40.0468388,38.9205897 L41.7899268,40.6909066 C41.5063765,40.9966713 41.2136147,41.293773 40.9120826,41.5817703 L40.0468388,38.9205897 Z M24.528683,6.36925645 L23.3314726,10.0518455 C15.5577444,11.6359566 9.70833333,18.5113648 9.70833333,26.7529762 C9.70833333,29.3009755 10.2674295,31.718391 11.2696342,33.8892349 L9.42305382,37.7144403 C7.41351321,34.5440292 6.25,30.7843792 6.25,26.7529762 C6.25,16.1810566 14.251411,7.47796673 24.528683,6.36925645 Z M47.2559524,26.7529762 C47.2559524,30.5830876 46.205729,34.1679061 44.377546,37.2351681 L42.48692,33.3191225 C43.3312661,31.298236 43.797619,29.0800674 43.797619,26.7529762 C43.797619,18.6998759 38.2127359,11.951195 30.70484,10.1688039 L29.4903996,6.4311528 C39.5196443,7.76926801 47.2559524,16.3576663 47.2559524,26.7529762 Z" id="System-Logo-2.0.0-(Monochrome)" fill="#000000" fill-rule="nonzero"></path>
    </g>
</svg>